<svg xmlns="http://www.w3.org/2000/svg" xmlns:xlink="http://www.w3.org/1999/xlink" width="500" zoomAndPan="magnify" viewBox="0 0 375 374.999991" height="500" preserveAspectRatio="xMidYMid meet" version="1.0"><defs><clipPath id="55a4201d6e"><path d="M 59 30.703125 L 316 30.703125 L 316 328.453125 L 59 328.453125 Z M 59 30.703125 " clip-rule="nonzero"/></clipPath></defs><g clip-path="url(#55a4201d6e)"><path fill="#ffffff" d="M 306.375 176.363281 C 306.375 176.363281 282.683594 188.925781 269.003906 216.433594 L 290.101562 213.914062 C 273.035156 251.605469 251.472656 263.738281 233.6875 263.738281 C 214.425781 263.738281 199.558594 249.480469 199.558594 238.070312 L 195.921875 127.507812 L 216.910156 127.507812 C 219.324219 132.152344 224.183594 135.359375 229.800781 135.359375 C 237.828125 135.359375 244.34375 128.839844 244.34375 120.8125 C 244.34375 112.785156 237.828125 106.269531 229.800781 106.269531 C 224.183594 106.269531 219.324219 109.4375 216.910156 114.117188 L 195.492188 114.117188 L 194.984375 98.601562 C 210.324219 95.144531 221.84375 81.429688 221.84375 65.046875 C 221.84375 46.109375 206.433594 30.703125 187.496094 30.703125 C 168.5625 30.703125 153.152344 46.109375 153.152344 65.046875 C 153.152344 81.429688 164.671875 95.144531 180.046875 98.566406 L 179.542969 114.082031 L 158.121094 114.082031 C 155.707031 109.4375 150.847656 106.234375 145.234375 106.234375 C 137.203125 106.234375 130.6875 112.75 130.6875 120.777344 C 130.6875 128.804688 137.203125 135.320312 145.234375 135.320312 C 150.847656 135.320312 155.707031 132.152344 158.121094 127.472656 L 179.074219 127.472656 L 175.4375 238.070312 C 175.4375 249.480469 160.570312 263.738281 141.308594 263.738281 C 123.523438 263.738281 101.996094 251.605469 84.894531 213.914062 L 105.992188 216.433594 C 92.3125 188.964844 68.585938 176.363281 68.585938 176.363281 C 68.585938 176.363281 56.347656 200.230469 60.808594 230.617188 L 77.011719 216.214844 C 79.820312 244.835938 91.914062 275.152344 143.9375 298.082031 C 166.222656 307.910156 175.796875 310.574219 187.496094 328.792969 C 199.234375 310.574219 208.8125 307.910156 231.058594 298.082031 C 283.082031 275.152344 295.175781 244.800781 297.984375 216.214844 L 314.1875 230.617188 C 318.648438 200.230469 306.375 176.363281 306.375 176.363281 Z M 167.878906 65.046875 C 167.878906 54.210938 176.660156 45.425781 187.496094 45.425781 C 198.296875 45.425781 207.117188 54.210938 207.117188 65.046875 C 207.117188 75.847656 198.335938 84.667969 187.496094 84.667969 C 176.699219 84.667969 167.878906 75.882812 167.878906 65.046875 Z M 167.878906 65.046875 " fill-opacity="1" fill-rule="nonzero"/></g></svg>