<svg xmlns="http://www.w3.org/2000/svg" xmlns:xlink="http://www.w3.org/1999/xlink" width="500" zoomAndPan="magnify" viewBox="0 0 375 374.999991" height="500" preserveAspectRatio="xMidYMid meet" version="1.0"><defs><clipPath id="be505ae858"><path d="M 9 52.160156 L 365 52.160156 L 365 322.910156 L 9 322.910156 Z M 9 52.160156 " clip-rule="nonzero"/></clipPath></defs><g clip-path="url(#be505ae858)"><path fill="#ffffff" d="M 309.902344 74.679688 C 310.097656 74.753906 310.269531 74.898438 310.367188 75.09375 C 350.433594 134.046875 370.21875 200.542969 362.816406 277.089844 C 362.792969 277.410156 362.621094 277.703125 362.351562 277.898438 C 332.015625 300.195312 302.617188 313.730469 273.628906 322.703125 C 273.164062 322.835938 272.664062 322.675781 272.378906 322.273438 C 265.6875 312.960938 259.605469 303.121094 254.269531 292.804688 C 253.960938 292.191406 254.246094 291.472656 254.867188 291.226562 C 264.535156 287.582031 273.726562 283.210938 282.5625 278.046875 C 283.261719 277.644531 283.308594 276.636719 282.660156 276.160156 C 280.789062 274.765625 278.929688 273.296875 277.152344 271.839844 C 276.808594 271.570312 276.367188 271.511719 275.988281 271.695312 C 218.609375 298.214844 155.753906 298.214844 97.6875 271.695312 C 97.308594 271.523438 96.855469 271.582031 96.535156 271.851562 C 94.761719 273.308594 92.902344 274.765625 91.042969 276.160156 C 90.40625 276.636719 90.457031 277.644531 91.152344 278.046875 C 99.988281 283.113281 109.175781 287.582031 118.832031 291.238281 C 119.457031 291.484375 119.75 292.191406 119.445312 292.804688 C 114.230469 303.144531 108.148438 312.972656 101.320312 322.285156 C 101.027344 322.675781 100.535156 322.835938 100.074219 322.703125 C 71.230469 313.730469 41.832031 300.195312 11.484375 277.898438 C 11.230469 277.703125 11.054688 277.398438 11.019531 277.078125 C 4.835938 210.859375 17.445312 143.808594 63.433594 75.085938 C 63.542969 74.898438 63.714844 74.753906 63.910156 74.679688 C 86.539062 64.277344 110.792969 56.628906 136.125 52.269531 C 136.589844 52.199219 137.058594 52.40625 137.289062 52.824219 C 140.421875 58.367188 144.003906 65.476562 146.417969 71.289062 C 173.132812 67.214844 200.261719 67.214844 227.53125 71.289062 C 229.953125 65.597656 233.40625 58.367188 236.523438 52.824219 C 236.757812 52.394531 237.21875 52.1875 237.6875 52.269531 C 263.042969 56.652344 287.285156 64.289062 309.902344 74.679688 Z M 128.121094 236.753906 C 145.878906 236.753906 160 220.699219 160 200.984375 C 160.285156 181.417969 146.011719 165.226562 128.121094 165.226562 C 110.351562 165.226562 96.230469 181.269531 96.230469 200.984375 C 96.230469 220.699219 110.632812 236.753906 128.121094 236.753906 Z M 246.007812 236.753906 C 263.914062 236.753906 277.886719 220.699219 277.886719 200.984375 C 278.171875 181.417969 263.914062 165.226562 246.007812 165.226562 C 228.25 165.226562 214.117188 181.269531 214.117188 200.984375 C 214.117188 220.699219 228.519531 236.753906 246.007812 236.753906 Z M 246.007812 236.753906 " fill-opacity="1" fill-rule="evenodd"/></g></svg>