<svg xmlns="http://www.w3.org/2000/svg" xmlns:xlink="http://www.w3.org/1999/xlink" width="500" zoomAndPan="magnify" viewBox="0 0 375 374.999991" height="500" preserveAspectRatio="xMidYMid meet" version="1.0"><defs><clipPath id="b0630dbfde"><path d="M 40 66.894531 L 333 66.894531 L 333 289.644531 L 40 289.644531 Z M 40 66.894531 " clip-rule="nonzero"/></clipPath></defs><g clip-path="url(#b0630dbfde)"><path fill="#ffffff" d="M 287.742188 85.421875 C 287.902344 85.480469 288.042969 85.601562 288.125 85.761719 C 321.085938 134.257812 337.363281 188.964844 331.273438 251.9375 C 331.253906 252.199219 331.113281 252.441406 330.890625 252.601562 C 305.933594 270.945312 281.75 282.078125 257.898438 289.460938 C 257.519531 289.570312 257.105469 289.4375 256.875 289.105469 C 251.367188 281.445312 246.363281 273.351562 241.976562 264.863281 C 241.722656 264.359375 241.953125 263.765625 242.46875 263.566406 C 250.421875 260.566406 257.984375 256.96875 265.25 252.722656 C 265.824219 252.390625 265.863281 251.5625 265.332031 251.171875 C 263.792969 250.023438 262.261719 248.816406 260.800781 247.617188 C 260.519531 247.394531 260.15625 247.347656 259.84375 247.496094 C 212.636719 269.3125 160.929688 269.3125 113.160156 247.496094 C 112.847656 247.359375 112.476562 247.40625 112.214844 247.628906 C 110.753906 248.828125 109.226562 250.023438 107.695312 251.171875 C 107.171875 251.5625 107.210938 252.390625 107.785156 252.722656 C 115.054688 256.890625 122.613281 260.566406 130.558594 263.578125 C 131.070312 263.777344 131.3125 264.359375 131.0625 264.863281 C 126.769531 273.371094 121.769531 281.453125 116.148438 289.117188 C 115.910156 289.4375 115.503906 289.570312 115.125 289.460938 C 91.394531 282.078125 67.210938 270.945312 42.246094 252.601562 C 42.035156 252.441406 41.894531 252.191406 41.863281 251.925781 C 36.777344 197.449219 47.148438 142.292969 84.984375 85.753906 C 85.074219 85.601562 85.210938 85.480469 85.375 85.421875 C 103.992188 76.863281 123.945312 70.570312 144.785156 66.988281 C 145.164062 66.925781 145.550781 67.097656 145.738281 67.441406 C 148.316406 72 151.265625 77.851562 153.25 82.632812 C 175.226562 79.28125 197.546875 79.28125 219.976562 82.632812 C 221.96875 77.949219 224.808594 72 227.378906 67.441406 C 227.566406 67.085938 227.949219 66.917969 228.332031 66.988281 C 249.191406 70.59375 269.136719 76.871094 287.742188 85.421875 Z M 138.199219 218.753906 C 152.804688 218.753906 164.425781 205.546875 164.425781 189.328125 C 164.65625 173.230469 152.917969 159.910156 138.199219 159.910156 C 123.582031 159.910156 111.960938 173.109375 111.960938 189.328125 C 111.960938 205.546875 123.8125 218.753906 138.199219 218.753906 Z M 235.179688 218.753906 C 249.90625 218.753906 261.40625 205.546875 261.40625 189.328125 C 261.636719 173.230469 249.90625 159.910156 235.179688 159.910156 C 220.570312 159.910156 208.941406 173.109375 208.941406 189.328125 C 208.941406 205.546875 220.792969 218.753906 235.179688 218.753906 Z M 235.179688 218.753906 " fill-opacity="1" fill-rule="evenodd"/></g></svg>