<svg xmlns="http://www.w3.org/2000/svg" xmlns:xlink="http://www.w3.org/1999/xlink" width="500" zoomAndPan="magnify" viewBox="0 0 375 374.999991" height="500" preserveAspectRatio="xMidYMid meet" version="1.0"><defs><clipPath id="f7ccb796e0"><path d="M 235.421875 289.238281 L 245.921875 289.238281 L 245.921875 299.738281 L 235.421875 299.738281 Z M 235.421875 289.238281 " clip-rule="nonzero"/></clipPath></defs><path fill="#ffffff" d="M 249.394531 254.335938 C 254.992188 267.285156 253.464844 280.785156 253.550781 294.117188 C 253.636719 307.410156 253.632812 320.707031 253.542969 334.003906 C 253.464844 343.886719 245.503906 350.480469 236.328125 348.464844 C 229.925781 347.058594 225.429688 341.488281 225.414062 334.605469 C 225.375 315.816406 225.304688 297.027344 225.496094 278.238281 C 225.59375 268.878906 222.835938 260.753906 216.511719 253.871094 C 212.4375 249.441406 210.957031 244.390625 213.136719 238.699219 C 215.25 233.179688 219.570312 230.621094 225.378906 229.539062 C 236.027344 227.5625 246.839844 225.851562 257.113281 222.558594 C 280.84375 214.945312 294.738281 198 299.808594 173.84375 C 302.917969 159.039062 304.363281 144.082031 300.566406 129.121094 C 298.117188 119.476562 293.546875 110.871094 286.753906 103.613281 C 281.785156 98.308594 280.597656 92.683594 283.058594 85.800781 C 286.71875 75.542969 287.097656 65.007812 284.398438 53.75 C 280.699219 55.007812 277.03125 55.808594 273.789062 57.449219 C 265.582031 61.609375 257.378906 65.832031 249.546875 70.640625 C 244.292969 73.867188 239.285156 74.828125 233.316406 73.285156 C 204.570312 65.84375 175.800781 65.855469 147.007812 73.320312 C 141.171875 74.832031 136.136719 74.089844 131.109375 70.683594 C 121.273438 64.019531 110.925781 58.257812 99.441406 54.847656 C 98.414062 54.542969 97.355469 54.339844 96.066406 54.035156 C 93.933594 61.894531 93.761719 69.59375 95.214844 77.316406 C 95.859375 80.75 96.894531 84.125 97.953125 87.464844 C 99.660156 92.839844 98.945312 97.769531 95.117188 101.902344 C 82.585938 115.441406 77.023438 131.421875 77.75 149.769531 C 78.253906 162.460938 79.796875 174.9375 84.527344 186.832031 C 92.195312 206.109375 106.8125 217.804688 126.15625 223.6875 C 135.242188 226.449219 144.695312 228.125 154.082031 229.734375 C 163.609375 231.367188 169.246094 237.222656 167.984375 245.851562 C 167.585938 248.609375 166.15625 251.59375 164.308594 253.691406 C 157.625 261.265625 154.773438 269.886719 154.929688 279.953125 C 155.203125 298.078125 155.0625 316.210938 154.996094 334.339844 C 154.960938 342.660156 149.003906 348.796875 141.140625 348.902344 C 133.222656 349.007812 127.109375 342.726562 127.027344 334.257812 C 126.953125 326.363281 127.011719 318.46875 127.011719 310.992188 C 119.824219 310.992188 112.929688 311.363281 106.082031 310.917969 C 89.757812 309.855469 76.164062 302.738281 65.078125 290.917969 C 60.050781 285.558594 55.542969 279.710938 50.859375 274.042969 C 46.988281 269.359375 42.964844 265.203125 36.847656 263.089844 C 30.058594 260.742188 26.957031 252.671875 29.296875 245.859375 C 31.699219 238.863281 38.960938 235.011719 46.167969 236.859375 C 55.476562 239.25 62.738281 244.769531 68.886719 251.871094 C 73.339844 257.015625 77.617188 262.324219 81.824219 267.679688 C 93.605469 282.660156 108.976562 285.777344 126.609375 281.558594 C 126.9375 276.867188 126.984375 272.25 127.664062 267.726562 C 128.324219 263.308594 129.640625 258.984375 130.691406 254.519531 C 125.675781 252.988281 120.40625 251.570312 115.265625 249.78125 C 77.675781 236.699219 57.269531 209.59375 51.460938 170.867188 C 49.167969 155.609375 48.390625 140.277344 51.914062 125.015625 C 54.722656 112.871094 59.738281 101.75 67.15625 91.746094 C 68.429688 90.023438 68.886719 88.496094 68.398438 86.347656 C 64.4375 68.917969 65.875 51.890625 72.527344 35.3125 C 75.289062 28.425781 79.855469 25.660156 87.214844 25.316406 C 104.582031 24.503906 119.746094 31.171875 134.019531 39.726562 C 140.859375 43.828125 146.90625 44.566406 154.539062 43.050781 C 180.601562 37.875 206.734375 38.628906 232.695312 44.21875 C 235.691406 44.863281 237.996094 44.566406 240.644531 42.945312 C 253.519531 35.058594 266.933594 28.257812 282.046875 25.863281 C 286.660156 25.132812 291.492188 25.132812 296.15625 25.554688 C 301.722656 26.054688 305.566406 29.425781 307.6875 34.65625 C 314.53125 51.527344 316.074219 68.835938 312.15625 86.652344 C 311.851562 88.027344 312.195312 89.984375 313.011719 91.105469 C 326.75 109.933594 332.105469 131.058594 330.699219 154.128906 C 329.761719 169.449219 327.402344 184.464844 321.398438 198.707031 C 310.046875 225.644531 289.460938 242.109375 262.0625 250.765625 C 258.007812 252.042969 253.875 253.078125 249.394531 254.335938 Z M 249.394531 254.335938 " fill-opacity="1" fill-rule="nonzero"/><g clip-path="url(#f7ccb796e0)"><path fill="#ffffff" d="M 245.78125 294.417969 C 245.78125 294.757812 245.75 295.09375 245.683594 295.425781 C 245.617188 295.761719 245.519531 296.085938 245.386719 296.398438 C 245.257812 296.714844 245.097656 297.011719 244.910156 297.292969 C 244.71875 297.578125 244.503906 297.839844 244.265625 298.078125 C 244.023438 298.320312 243.761719 298.535156 243.480469 298.722656 C 243.199219 298.914062 242.898438 299.070312 242.585938 299.203125 C 242.269531 299.332031 241.945312 299.429688 241.613281 299.496094 C 241.28125 299.5625 240.941406 299.597656 240.601562 299.597656 C 240.261719 299.597656 239.925781 299.5625 239.59375 299.496094 C 239.257812 299.429688 238.933594 299.332031 238.621094 299.203125 C 238.304688 299.070312 238.007812 298.914062 237.726562 298.722656 C 237.441406 298.535156 237.179688 298.320312 236.941406 298.078125 C 236.699219 297.839844 236.484375 297.578125 236.296875 297.292969 C 236.105469 297.011719 235.949219 296.714844 235.816406 296.398438 C 235.6875 296.085938 235.589844 295.761719 235.523438 295.425781 C 235.457031 295.09375 235.421875 294.757812 235.421875 294.417969 C 235.421875 294.078125 235.457031 293.738281 235.523438 293.40625 C 235.589844 293.074219 235.6875 292.75 235.816406 292.433594 C 235.949219 292.121094 236.105469 291.820312 236.296875 291.539062 C 236.484375 291.257812 236.699219 290.996094 236.941406 290.753906 C 237.179688 290.515625 237.441406 290.300781 237.726562 290.109375 C 238.007812 289.921875 238.304688 289.761719 238.621094 289.632812 C 238.933594 289.5 239.257812 289.402344 239.59375 289.335938 C 239.925781 289.269531 240.261719 289.238281 240.601562 289.238281 C 240.941406 289.238281 241.28125 289.269531 241.613281 289.335938 C 241.945312 289.402344 242.269531 289.5 242.585938 289.632812 C 242.898438 289.761719 243.199219 289.921875 243.480469 290.109375 C 243.761719 290.300781 244.023438 290.515625 244.265625 290.753906 C 244.503906 290.996094 244.71875 291.257812 244.910156 291.539062 C 245.097656 291.820312 245.257812 292.121094 245.386719 292.433594 C 245.519531 292.75 245.617188 293.074219 245.683594 293.40625 C 245.75 293.738281 245.78125 294.078125 245.78125 294.417969 Z M 245.78125 294.417969 " fill-opacity="1" fill-rule="nonzero"/></g></svg>