<svg xmlns="http://www.w3.org/2000/svg" xmlns:xlink="http://www.w3.org/1999/xlink" width="500" zoomAndPan="magnify" viewBox="0 0 375 374.999991" height="500" preserveAspectRatio="xMidYMid meet" version="1.0"><defs><clipPath id="a7c908bafc"><path d="M 15.894531 37.5 L 307 37.5 L 307 328 L 15.894531 328 Z M 15.894531 37.5 " clip-rule="nonzero"/></clipPath><clipPath id="7c5b167c32"><path d="M 319 290 L 359.394531 290 L 359.394531 330 L 319 330 Z M 319 290 " clip-rule="nonzero"/></clipPath></defs><path fill="#ffffff" d="M 342.429688 311.207031 C 345.402344 311.234375 347.835938 308.855469 347.867188 305.890625 C 347.867188 305.765625 347.867188 305.644531 347.867188 305.519531 C 347.867188 301.488281 345.429688 299.574219 340.445312 299.574219 L 332.382812 299.574219 L 332.382812 320.65625 L 335.421875 320.65625 L 335.421875 311.46875 L 339.144531 311.46875 L 339.226562 311.578125 L 345.019531 320.65625 L 348.261719 320.65625 L 342.03125 311.261719 L 342.445312 311.207031 Z M 338.925781 309.089844 L 335.40625 309.089844 L 335.40625 301.964844 L 339.871094 301.964844 C 342.167969 301.964844 344.796875 302.347656 344.796875 305.355469 C 344.796875 308.816406 342.140625 309.101562 338.910156 309.101562 " fill-opacity="1" fill-rule="nonzero"/><g clip-path="url(#a7c908bafc)"><path fill="#ffffff" d="M 263.285156 284.78125 L 220.269531 284.78125 L 220.269531 217.503906 C 220.269531 201.46875 219.980469 180.8125 197.898438 180.8125 C 175.8125 180.8125 172.0625 198.296875 172.0625 216.34375 L 172.0625 284.78125 L 129.046875 284.78125 L 129.046875 146.425781 L 170.351562 146.425781 L 170.351562 165.335938 L 170.925781 165.335938 C 179.347656 150.953125 195.007812 142.367188 211.671875 142.980469 C 255.273438 142.980469 263.3125 171.625 263.3125 208.878906 L 263.3125 284.78125 Z M 80.484375 127.519531 C 66.699219 127.519531 55.515625 116.363281 55.515625 102.597656 C 55.515625 88.828125 66.683594 77.660156 80.472656 77.660156 C 94.257812 77.660156 105.445312 88.816406 105.445312 102.582031 C 105.445312 116.351562 94.273438 127.519531 80.484375 127.519531 M 102.007812 284.78125 L 58.9375 284.78125 L 58.9375 146.425781 L 102.007812 146.425781 Z M 284.738281 37.753906 L 37.320312 37.753906 C 25.628906 37.628906 16.03125 46.980469 15.894531 58.65625 L 15.894531 306.75 C 16.03125 318.441406 25.613281 327.792969 37.320312 327.667969 L 284.738281 327.667969 C 296.457031 327.820312 306.082031 318.453125 306.246094 306.75 L 306.246094 58.644531 C 306.082031 46.941406 296.457031 37.589844 284.738281 37.738281 " fill-opacity="1" fill-rule="nonzero"/></g><g clip-path="url(#7c5b167c32)"><path fill="#ffffff" d="M 339.28125 290.179688 C 328.34375 290.289062 319.566406 299.21875 319.675781 310.140625 C 319.785156 321.066406 328.726562 329.828125 339.664062 329.71875 C 350.601562 329.609375 359.378906 320.683594 359.269531 309.757812 C 359.160156 298.984375 350.453125 290.277344 339.664062 290.179688 L 339.28125 290.179688 M 339.28125 327.464844 C 329.699219 327.628906 321.796875 319.984375 321.632812 310.414062 C 321.46875 300.84375 329.121094 292.957031 338.707031 292.792969 C 348.289062 292.628906 356.1875 300.269531 356.355469 309.839844 L 356.355469 310.128906 C 356.558594 319.492188 349.109375 327.246094 339.734375 327.449219 L 339.28125 327.449219 " fill-opacity="1" fill-rule="nonzero"/></g></svg>