<svg xmlns="http://www.w3.org/2000/svg" xmlns:xlink="http://www.w3.org/1999/xlink" width="500" zoomAndPan="magnify" viewBox="0 0 375 374.999991" height="500" preserveAspectRatio="xMidYMid meet" version="1.0"><defs><clipPath id="2c554fa810"><path d="M 53 50 L 262.828125 50 L 262.828125 258.945312 L 53 258.945312 Z M 53 50 " clip-rule="nonzero"/></clipPath><clipPath id="305b2bee93"><path d="M 133.894531 268 L 200 268 L 200 323 L 133.894531 323 Z M 133.894531 268 " clip-rule="nonzero"/></clipPath></defs><g clip-path="url(#2c554fa810)"><path fill="#ffffff" d="M 146.195312 51.28125 C 98.78125 56.96875 59.902344 94.898438 54.214844 143.257812 C 47.578125 205.84375 96.886719 258.945312 158.519531 258.945312 C 164.210938 258.945312 169.898438 257.996094 174.640625 256.101562 C 198.347656 249.460938 208.777344 220.066406 194.554688 199.207031 C 186.96875 188.773438 195.503906 173.601562 208.777344 173.601562 L 243.863281 173.601562 C 254.292969 173.601562 262.828125 165.070312 262.828125 154.636719 C 262.828125 93.003906 209.726562 43.695312 146.195312 51.28125 Z M 158.519531 239.980469 C 148.089844 239.980469 139.554688 231.445312 139.554688 221.015625 C 139.554688 210.585938 148.089844 202.050781 158.519531 202.050781 C 168.953125 202.050781 177.484375 210.585938 177.484375 221.015625 C 177.484375 231.445312 168.953125 239.980469 158.519531 239.980469 Z M 220.15625 145.15625 C 212.570312 145.15625 205.933594 138.519531 205.933594 130.933594 C 205.933594 123.347656 212.570312 116.707031 220.15625 116.707031 C 227.742188 116.707031 234.378906 123.347656 234.378906 130.933594 C 234.378906 138.519531 227.742188 145.15625 220.15625 145.15625 Z M 182.226562 107.226562 C 174.640625 107.226562 168.003906 100.589844 168.003906 93.003906 C 168.003906 85.417969 174.640625 78.78125 182.226562 78.78125 C 189.8125 78.78125 196.449219 85.417969 196.449219 93.003906 C 196.449219 100.589844 189.8125 107.226562 182.226562 107.226562 Z M 134.816406 107.226562 C 127.230469 107.226562 120.589844 100.589844 120.589844 93.003906 C 120.589844 85.417969 127.230469 78.78125 134.816406 78.78125 C 142.402344 78.78125 149.039062 85.417969 149.039062 93.003906 C 149.039062 100.589844 142.402344 107.226562 134.816406 107.226562 Z M 96.886719 135.671875 C 89.300781 135.671875 82.660156 129.035156 82.660156 121.449219 C 82.660156 113.863281 89.300781 107.226562 96.886719 107.226562 C 104.472656 107.226562 111.109375 113.863281 111.109375 121.449219 C 111.109375 129.035156 104.472656 135.671875 96.886719 135.671875 Z M 87.402344 183.085938 C 79.816406 183.085938 73.179688 176.449219 73.179688 168.863281 C 73.179688 161.277344 79.816406 154.636719 87.402344 154.636719 C 94.988281 154.636719 101.625 161.277344 101.625 168.863281 C 101.625 176.449219 94.988281 183.085938 87.402344 183.085938 Z M 87.402344 183.085938 " fill-opacity="1" fill-rule="nonzero"/></g><g clip-path="url(#305b2bee93)"><path fill="#ffffff" d="M 166.132812 272.464844 C 147.085938 285.230469 158.132812 302.992188 133.894531 320.46875 C 136.316406 321.097656 138.765625 321.582031 141.242188 321.925781 C 143.722656 322.265625 146.210938 322.460938 148.714844 322.515625 C 151.214844 322.566406 153.710938 322.472656 156.199219 322.234375 C 158.691406 321.992188 161.160156 321.609375 163.605469 321.082031 C 166.050781 320.554688 168.457031 319.886719 170.824219 319.078125 C 173.191406 318.269531 175.503906 317.328125 177.761719 316.25 C 180.019531 315.171875 182.207031 313.964844 184.324219 312.632812 C 186.441406 311.300781 188.472656 309.847656 190.421875 308.277344 C 190.992188 307.867188 191.546875 307.433594 192.074219 306.972656 C 192.605469 306.507812 193.113281 306.023438 193.601562 305.511719 C 194.085938 305.003906 194.542969 304.46875 194.980469 303.917969 C 195.414062 303.363281 195.820312 302.789062 196.199219 302.195312 C 196.578125 301.605469 196.929688 300.996094 197.25 300.367188 C 197.574219 299.742188 197.863281 299.101562 198.125 298.449219 C 198.386719 297.796875 198.617188 297.128906 198.8125 296.457031 C 199.011719 295.78125 199.175781 295.097656 199.308594 294.40625 C 199.441406 293.714844 199.539062 293.019531 199.605469 292.316406 C 199.671875 291.617188 199.707031 290.914062 199.707031 290.210938 C 199.703125 289.507812 199.671875 288.804688 199.605469 288.101562 C 199.535156 287.402344 199.4375 286.707031 199.300781 286.015625 C 199.167969 285.324219 199.003906 284.640625 198.804688 283.964844 C 198.605469 283.292969 198.375 282.625 198.113281 281.972656 C 197.851562 281.320312 197.558594 280.679688 197.238281 280.054688 C 196.914062 279.429688 196.5625 278.820312 196.183594 278.226562 C 195.785156 277.644531 195.359375 277.078125 194.90625 276.535156 C 194.449219 275.992188 193.972656 275.46875 193.464844 274.972656 C 192.960938 274.476562 192.433594 274.003906 191.882812 273.5625 C 191.332031 273.117188 190.761719 272.699219 190.167969 272.308594 C 189.578125 271.921875 188.96875 271.5625 188.339844 271.230469 C 187.710938 270.902344 187.070312 270.605469 186.414062 270.339844 C 185.757812 270.074219 185.089844 269.839844 184.410156 269.636719 C 183.730469 269.4375 183.042969 269.269531 182.347656 269.136719 C 181.652344 269.003906 180.953125 268.90625 180.246094 268.839844 C 179.542969 268.773438 178.835938 268.746094 178.128906 268.75 C 177.417969 268.753906 176.710938 268.792969 176.007812 268.867188 C 175.304688 268.941406 174.605469 269.050781 173.910156 269.191406 C 173.21875 269.335938 172.53125 269.511719 171.855469 269.71875 C 171.179688 269.929688 170.515625 270.171875 169.859375 270.445312 C 169.207031 270.722656 168.570312 271.027344 167.949219 271.363281 C 167.324219 271.703125 166.71875 272.070312 166.132812 272.464844 Z M 166.132812 272.464844 " fill-opacity="1" fill-rule="nonzero"/></g><path fill="#ffffff" d="M 196.085938 247.75 C 194.6875 250.027344 193.414062 252.378906 192.277344 254.796875 L 188.277344 263.609375 C 192.164062 265.042969 195.578125 267.214844 198.515625 270.132812 C 199.789062 271.421875 200.933594 272.820312 201.945312 274.324219 C 203.527344 276.667969 204.734375 279.191406 205.5625 281.894531 L 215.089844 277.5625 C 217.523438 276.449219 219.875 275.179688 222.136719 273.753906 C 218.773438 268.589844 214.914062 263.828125 210.566406 259.464844 C 206.179688 255.015625 201.355469 251.109375 196.085938 247.75 Z M 196.085938 247.75 " fill-opacity="1" fill-rule="nonzero"/><path fill="#ffffff" d="M 345.523438 124.363281 C 345.117188 123.953125 344.671875 123.589844 344.195312 123.265625 C 343.71875 122.941406 343.214844 122.664062 342.6875 122.433594 C 342.15625 122.207031 341.609375 122.03125 341.046875 121.902344 C 340.484375 121.777344 339.914062 121.707031 339.335938 121.691406 C 338.761719 121.671875 338.1875 121.707031 337.617188 121.800781 C 337.046875 121.890625 336.492188 122.035156 335.949219 122.230469 C 335.40625 122.425781 334.886719 122.671875 334.390625 122.964844 C 333.894531 123.261719 333.433594 123.597656 333 123.980469 L 207.992188 233.511719 C 205.113281 236.074219 202.476562 238.867188 200.085938 241.894531 C 205.660156 245.46875 210.785156 249.597656 215.46875 254.273438 C 220.144531 258.996094 224.269531 264.15625 227.851562 269.75 C 230.917969 267.390625 233.726562 264.757812 236.28125 261.847656 L 345.808594 136.886719 C 346.191406 136.457031 346.53125 135.996094 346.828125 135.5 C 347.125 135.007812 347.371094 134.488281 347.570312 133.949219 C 347.769531 133.40625 347.914062 132.851562 348.007812 132.285156 C 348.105469 131.714844 348.144531 131.144531 348.132812 130.570312 C 348.117188 129.992188 348.050781 129.421875 347.929688 128.859375 C 347.8125 128.296875 347.640625 127.75 347.417969 127.21875 C 347.195312 126.6875 346.921875 126.183594 346.605469 125.703125 C 346.285156 125.222656 345.925781 124.773438 345.523438 124.363281 Z M 345.523438 124.363281 " fill-opacity="1" fill-rule="nonzero"/></svg>