<svg xmlns="http://www.w3.org/2000/svg" xmlns:xlink="http://www.w3.org/1999/xlink" width="500" zoomAndPan="magnify" viewBox="0 0 375 374.999991" height="500" preserveAspectRatio="xMidYMid meet" version="1.0"><defs><clipPath id="c338495102"><path d="M 103.835938 110.113281 L 271.085938 110.113281 L 271.085938 250.363281 L 103.835938 250.363281 Z M 103.835938 110.113281 " clip-rule="nonzero"/></clipPath><clipPath id="0908dedbbd"><path d="M 103.835938 110.113281 L 271.085938 110.113281 L 271.085938 250.363281 L 103.835938 250.363281 Z M 103.835938 110.113281 " clip-rule="nonzero"/></clipPath></defs><g clip-path="url(#c338495102)"><path fill="#f7f7f0" d="M 271.101562 228.769531 L 271.101562 244.949219 L 190.203125 244.949219 L 190.203125 250.34375 L 157.839844 250.34375 L 157.839844 244.949219 L 103.90625 244.949219 L 103.90625 223.378906 L 109.300781 223.378906 L 109.300781 217.980469 L 114.695312 217.980469 L 114.695312 212.589844 L 120.085938 212.589844 L 120.085938 174.835938 L 125.480469 174.835938 L 125.480469 158.652344 L 120.085938 158.652344 L 120.085938 120.902344 L 125.480469 120.902344 L 125.480469 115.507812 L 206.378906 115.507812 L 206.378906 110.113281 L 222.5625 110.113281 L 222.5625 115.507812 L 249.527344 115.507812 L 249.527344 126.296875 L 254.921875 126.296875 L 254.921875 147.867188 L 249.527344 147.867188 L 249.527344 207.195312 L 254.921875 207.195312 L 254.921875 212.589844 L 260.316406 212.589844 L 260.316406 217.980469 L 265.707031 217.980469 L 265.707031 228.769531 Z M 271.101562 228.769531 " fill-opacity="1" fill-rule="nonzero"/></g><path fill="#f7f7f0" d="M 190.203125 239.554688 L 190.203125 244.949219 L 157.839844 244.949219 L 157.839844 234.164062 L 163.234375 234.164062 L 163.234375 228.769531 L 217.167969 228.769531 L 217.167969 239.554688 Z M 125.480469 180.226562 L 125.480469 174.835938 L 130.875 174.835938 L 130.875 158.652344 L 125.480469 158.652344 L 125.480469 120.902344 L 206.378906 120.902344 L 206.378906 115.507812 L 222.5625 115.507812 L 222.5625 120.902344 L 244.132812 120.902344 L 244.132812 126.296875 L 249.527344 126.296875 L 249.527344 147.867188 L 244.132812 147.867188 L 244.132812 196.410156 L 125.480469 196.410156 Z M 136.265625 174.835938 L 136.265625 185.625 L 141.660156 185.625 L 141.660156 191.015625 L 184.804688 191.015625 L 184.804688 185.625 L 222.5625 185.625 L 222.5625 191.015625 L 233.347656 191.015625 L 233.347656 185.625 L 238.742188 185.625 L 238.742188 131.6875 L 233.347656 131.6875 L 233.347656 126.296875 L 147.054688 126.296875 L 147.054688 131.6875 L 130.875 131.6875 L 130.875 153.261719 L 136.265625 153.261719 Z M 120.085938 217.980469 L 120.085938 212.589844 L 125.480469 212.589844 L 125.480469 207.195312 L 130.875 207.195312 L 130.875 201.800781 L 168.628906 201.800781 L 168.628906 207.195312 L 200.988281 207.195312 L 200.988281 201.800781 L 244.132812 201.800781 L 244.132812 207.195312 L 249.527344 207.195312 L 249.527344 212.589844 L 254.921875 212.589844 L 254.921875 223.378906 L 260.316406 223.378906 L 260.316406 228.769531 L 265.707031 228.769531 L 265.707031 239.554688 L 227.953125 239.554688 L 227.953125 234.164062 L 222.5625 234.164062 L 222.5625 228.769531 L 217.167969 228.769531 L 217.167969 223.378906 L 157.839844 223.378906 L 157.839844 234.164062 L 147.054688 234.164062 L 147.054688 239.554688 L 109.300781 239.554688 L 109.300781 228.769531 L 114.695312 228.769531 L 114.695312 223.378906 L 120.085938 223.378906 Z M 147.054688 228.769531 L 147.054688 223.378906 L 125.480469 223.378906 L 125.480469 228.769531 Z M 227.953125 228.769531 L 238.742188 228.769531 L 238.742188 223.378906 L 227.953125 223.378906 Z M 249.527344 223.378906 L 244.132812 223.378906 L 244.132812 228.769531 L 249.527344 228.769531 Z M 200.988281 212.589844 L 200.988281 217.980469 L 233.347656 217.980469 L 233.347656 212.589844 Z M 168.628906 212.589844 L 141.660156 212.589844 L 141.660156 217.980469 L 190.203125 217.980469 L 190.203125 212.589844 Z M 168.628906 212.589844 " fill-opacity="1" fill-rule="nonzero"/><g clip-path="url(#0908dedbbd)"><path fill="#a6a6a6" d="M 271.101562 228.769531 L 271.101562 244.949219 L 190.203125 244.949219 L 190.203125 239.554688 L 217.167969 239.554688 L 217.167969 228.769531 L 222.5625 228.769531 L 222.5625 234.164062 L 227.953125 234.164062 L 227.953125 239.554688 L 265.707031 239.554688 L 265.707031 228.769531 Z M 254.921875 223.378906 L 260.316406 223.378906 L 260.316406 228.769531 L 265.707031 228.769531 L 265.707031 217.980469 L 260.316406 217.980469 L 260.316406 212.589844 L 254.921875 212.589844 Z M 249.527344 137.082031 L 249.527344 147.867188 L 254.921875 147.867188 L 254.921875 126.296875 L 249.527344 126.296875 Z M 254.921875 212.589844 L 254.921875 207.195312 L 249.527344 207.195312 L 249.527344 212.589844 Z M 227.953125 120.902344 L 244.132812 120.902344 L 244.132812 126.296875 L 249.527344 126.296875 L 249.527344 115.507812 L 222.5625 115.507812 L 222.5625 120.902344 Z M 211.777344 223.378906 L 157.839844 223.378906 L 157.839844 234.164062 L 163.234375 234.164062 L 163.234375 228.769531 L 217.167969 228.769531 L 217.167969 223.378906 Z M 217.167969 115.507812 L 222.5625 115.507812 L 222.5625 110.113281 L 206.378906 110.113281 L 206.378906 115.507812 Z M 179.414062 244.949219 L 157.839844 244.949219 L 157.839844 250.34375 L 190.203125 250.34375 L 190.203125 244.949219 Z M 157.839844 234.164062 L 147.054688 234.164062 L 147.054688 239.554688 L 109.300781 239.554688 L 109.300781 228.769531 L 114.695312 228.769531 L 114.695312 223.378906 L 120.085938 223.378906 L 120.085938 212.589844 L 114.695312 212.589844 L 114.695312 217.980469 L 109.300781 217.980469 L 109.300781 223.378906 L 103.90625 223.378906 L 103.90625 244.949219 L 157.839844 244.949219 Z M 136.265625 185.625 L 141.660156 185.625 L 141.660156 191.015625 L 184.804688 191.015625 L 184.804688 185.625 L 222.5625 185.625 L 222.5625 191.015625 L 233.347656 191.015625 L 233.347656 185.625 L 238.742188 185.625 L 238.742188 131.6875 L 233.347656 131.6875 L 233.347656 126.296875 L 147.054688 126.296875 L 147.054688 131.6875 L 190.203125 131.6875 L 190.203125 137.082031 L 184.804688 137.082031 L 184.804688 142.476562 L 174.023438 142.476562 L 174.023438 147.867188 L 163.234375 147.867188 L 163.234375 153.261719 L 152.449219 153.261719 L 152.449219 158.652344 L 141.660156 158.652344 L 141.660156 153.261719 L 136.265625 153.261719 Z M 136.265625 142.476562 L 136.265625 137.082031 L 147.054688 137.082031 L 147.054688 131.6875 L 130.875 131.6875 L 130.875 153.261719 L 136.265625 153.261719 Z M 136.265625 120.902344 L 206.378906 120.902344 L 206.378906 115.507812 L 125.480469 115.507812 L 125.480469 120.902344 Z M 130.875 169.441406 L 130.875 158.652344 L 125.480469 158.652344 L 125.480469 174.835938 L 130.875 174.835938 Z M 125.480469 207.195312 L 130.875 207.195312 L 130.875 201.800781 L 168.628906 201.800781 L 168.628906 207.195312 L 200.988281 207.195312 L 200.988281 201.800781 L 244.132812 201.800781 L 244.132812 207.195312 L 249.527344 207.195312 L 249.527344 147.867188 L 244.132812 147.867188 L 244.132812 196.410156 L 125.480469 196.410156 L 125.480469 174.835938 L 120.085938 174.835938 L 120.085938 212.589844 L 125.480469 212.589844 Z M 125.480469 147.867188 L 125.480469 120.902344 L 120.085938 120.902344 L 120.085938 158.652344 L 125.480469 158.652344 Z M 125.480469 147.867188 " fill-opacity="1" fill-rule="nonzero"/></g><path fill="#f7f7f0" d="M 244.132812 223.378906 L 249.527344 223.378906 L 249.527344 228.769531 L 244.132812 228.769531 Z M 238.742188 228.769531 L 238.742188 223.378906 L 227.953125 223.378906 L 227.953125 228.769531 Z M 206.378906 217.980469 L 233.347656 217.980469 L 233.347656 212.589844 L 200.988281 212.589844 L 200.988281 217.980469 Z M 157.839844 212.589844 L 141.660156 212.589844 L 141.660156 217.980469 L 190.203125 217.980469 L 190.203125 212.589844 Z M 141.660156 223.378906 L 125.480469 223.378906 L 125.480469 228.769531 L 147.054688 228.769531 L 147.054688 223.378906 Z M 141.660156 158.652344 L 152.449219 158.652344 L 152.449219 153.261719 L 163.234375 153.261719 L 163.234375 147.867188 L 174.023438 147.867188 L 174.023438 142.476562 L 184.804688 142.476562 L 184.804688 137.082031 L 190.203125 137.082031 L 190.203125 131.6875 L 147.054688 131.6875 L 147.054688 137.082031 L 136.265625 137.082031 L 136.265625 153.261719 L 141.660156 153.261719 Z M 141.660156 158.652344 " fill-opacity="1" fill-rule="nonzero"/></svg>